P2
12 5
15
15 15 15 15 15 15 15 15 15 15 15 15 
15 0 0 0 15 0 0 0 15 0 0 15 
15 15 15 0 15 15 15 0 15 15 15 15 
15 0 0 0 15 0 0 0 15 0 0 0 
15 0 0 0 15 15 15 15 15 0 0 0 
